# xmcd CD database file
#
# Track frame offsets:
#	150
#	15867
#	30800
#	47982
#	66029
#	82359
#	97914
#	113107
#	133354
#	151414
#	169685
#
# Disc length: 2477 seconds
#
# Revision: 1
# Processed by: cddbd v1.4PL0 Copyright (c) Steve Scherf et al.
# Submitted via: CDex 1.51
#
DISCID=8409ab0b
DTITLE=Emil.RuleZ! - Hisztis
DYEAR=2003
DGENRE=Jazz
TTITLE0=Bölcsidal
TTITLE1=Csakacipõ
TTITLE2=Kivágni a Reset
TTITLE3=Hello.Tourist!
TTITLE4=Hogyan kerülnek oda?
TTITLE5=Medúza
TTITLE6=Zsebibe Zsé
TTITLE7=Pattanásos asszisztens
TTITLE8=Rabolónõ
TTITLE9=Fent
TTITLE10=Kukuruku
EXTD=YEAR: 2003
EXTT0=
EXTT1=
EXTT2=
EXTT3=
EXTT4=
EXTT5=
EXTT6=
EXTT7=
EXTT8=
EXTT9=
EXTT10=
PLAYORDER=
